<svg width="50" height="34" viewBox="0 0 50 34" fill="none" xmlns="http://www.w3.org/2000/svg">
<path d="M14.5257 23.7478C14.5257 19.9198 12.739 14.0794 11.8456 11.6377C11.7104 11.2597 11.3922 11.559 11.25 11.7559C10.8331 12.386 9.86822 13.8707 9.34411 14.7686C8.81999 15.6665 8.80808 16.0485 8.86764 16.1273L9.34411 17.7814C9.68161 18.9431 10.3328 21.9401 10.2375 24.6339C10.1422 27.3276 9.00661 28.3555 8.45072 28.5327C7.9544 28.7099 6.79499 28.9226 6.12793 28.3555C5.29411 27.6466 5.11543 25.9335 5.5919 22.1528C5.97308 19.1282 8.41102 14.4339 9.58234 12.4648C10.8728 10.5941 14.0969 6.6283 16.6698 5.73039C19.886 4.60799 21.375 5.37595 22.447 8.38869C23.1141 10.8461 20.8588 13.3902 19.6478 14.3551C19.5684 14.4142 19.219 14.6623 18.4566 15.1821C17.7895 15.4657 17.7419 15.8516 17.8015 16.0092C17.8809 16.2258 18.0992 16.8834 18.3375 17.7814C18.6353 18.9038 18.814 18.8447 19.7073 18.6675C20.6007 18.4902 22.3903 18.3971 23.9956 18.9038C25.3059 19.3173 26.914 20.8532 27.1522 21.1485C27.3904 21.4439 27.8192 22.1292 27.6287 23.925C27.4381 25.7208 25.4051 27.115 24.4125 27.5875C24.3132 27.6663 23.7335 27.8711 22.2088 28.0601C20.7198 28.2964 17.5632 27.4103 16.9676 27.2331C16.4912 27.0913 16.2926 27.3709 16.2529 27.5285C16.0345 28.198 15.5501 29.7024 15.3595 30.364C15.169 31.0256 15.3198 31.2304 15.4191 31.2501C15.8559 31.3879 17.0629 31.7463 18.397 32.0771C19.7312 32.4079 22.3279 32.3331 23.4595 32.2543C24.7103 32.0771 27.6763 31.2028 29.5345 29.1235C31.3928 27.0441 31.9367 24.6733 31.9764 23.7478C32.1353 22.9011 32.036 20.6169 30.3684 18.2539C28.939 16.0328 25.8419 15.0443 24.472 14.8277C24.611 14.7292 25.1034 14.1188 25.961 12.4648C26.8187 10.8107 26.914 8.78251 26.8544 7.97518C26.8742 7.26629 26.5685 5.4232 25.1867 3.72189C23.805 2.02058 20.9581 1.24081 19.7073 1.06359C19.1117 0.94544 17.3965 0.909996 15.3 1.71339C13.2035 2.51679 10.4559 4.92305 9.34411 6.02575C9.22499 5.82884 8.89146 5.28143 8.51028 4.66706C8.12911 4.0527 7.75587 3.46591 7.6169 3.2493C7.2794 2.77672 6.55675 1.77247 6.36617 1.53617C6.17558 1.29988 5.8897 1.43772 5.77058 1.53617C5.15514 2.08753 3.81705 3.28475 3.38823 3.66282C2.9594 4.04089 3.01102 4.21417 3.09043 4.25355L3.92426 5.31687C4.25778 5.7422 5.69117 8.40838 6.36617 9.6883C5.94925 10.3381 5.03205 11.7913 4.69852 12.4057C4.36499 13.02 3.13014 15.8516 2.5544 17.1906C1.99852 18.5296 0.910579 22.0228 1.00587 25.2837C1.10117 28.5445 2.27646 30.5018 2.8522 31.0729C3.46764 31.8211 5.36558 33.2468 8.03381 32.9632C10.702 32.6797 12.4809 30.876 13.0368 30.0096C13.5331 29.5173 14.5257 27.5757 14.5257 23.7478Z" fill="black" stroke="black"/>
<path d="M40.239 25.0608C40.4731 22.88 42.2485 20.6335 43.1069 19.7828C43.4346 19.5044 43.4775 19.1642 43.458 19.0288L43.2824 18.3328C43.0873 17.6948 42.6737 16.326 42.5801 15.9548C42.4865 15.5836 42.1119 15.5295 41.9363 15.5488H32.8646C32.0687 15.5488 31.9867 15.8968 32.0453 16.0708C32.2404 16.7862 32.6774 18.3792 32.8646 19.0288C33.0519 19.6784 33.4889 19.8022 33.684 19.7828H38.015L36.8445 22.1028C36.5323 22.7022 35.9197 24.5156 35.9666 26.9748C36.0134 29.434 38.1711 31.3248 39.2441 31.9628C39.4392 32.0981 40.2039 32.4616 41.7022 32.8328C43.2005 33.204 45.487 32.8715 46.4429 32.6588C46.8721 32.5235 47.8944 32.1716 48.5499 31.8468C49.3692 31.4408 48.8425 31.2668 48.7254 31.1508C48.6084 31.0348 46.677 29.4108 46.3844 28.8888C46.1503 28.4712 45.8186 28.4441 45.682 28.4828C45.7406 28.4635 45.6001 28.4944 44.57 28.7728C43.54 29.0512 42.1509 28.6181 41.5852 28.3668C41.0389 28.1735 40.0049 27.2416 40.239 25.0608Z" fill="black" stroke="black"/>
</svg>
