<svg width="20" height="20" viewBox="0 0 20 20" fill="none" xmlns="http://www.w3.org/2000/svg">
    <path d="M17.3688 14.2874C17.0915 14.9279 16.7634 15.5175 16.3831 16.0596C15.8648 16.7986 15.4405 17.3101 15.1134 17.5941C14.6064 18.0604 14.0632 18.2991 13.4816 18.3127C13.064 18.3127 12.5604 18.1939 11.9742 17.9529C11.3861 17.7129 10.8456 17.5941 10.3514 17.5941C9.83313 17.5941 9.27727 17.7129 8.6827 17.9529C8.08722 18.1939 7.60751 18.3195 7.24075 18.332C6.68295 18.3557 6.12698 18.1102 5.57201 17.5941C5.21781 17.2852 4.77477 16.7556 4.24402 16.0053C3.67457 15.2041 3.20641 14.275 2.83964 13.2158C2.44685 12.0717 2.24994 10.9638 2.24994 9.89119C2.24994 8.66255 2.51542 7.60287 3.04719 6.71486C3.46511 6.00158 4.02109 5.43892 4.71694 5.02587C5.41279 4.61282 6.16466 4.40233 6.97436 4.38886C7.4174 4.38886 7.99839 4.52591 8.72038 4.79524C9.44034 5.06548 9.90262 5.20252 10.1053 5.20252C10.2568 5.20252 10.7704 5.04228 11.6409 4.72281C12.4642 4.42655 13.1591 4.30388 13.7283 4.3522C15.2707 4.47668 16.4295 5.08472 17.2002 6.18016C15.8207 7.016 15.1383 8.18669 15.1519 9.68851C15.1643 10.8583 15.5887 11.8317 16.4227 12.6047C16.8007 12.9634 17.2228 13.2407 17.6924 13.4376C17.5906 13.7329 17.4831 14.0158 17.3688 14.2874V14.2874ZM13.8313 0.366969C13.8313 1.28385 13.4963 2.13993 12.8286 2.93231C12.0229 3.8743 11.0483 4.41863 9.99145 4.33273C9.97798 4.22274 9.97017 4.10697 9.97017 3.98532C9.97017 3.10512 10.3534 2.16313 11.0338 1.39293C11.3735 1.00296 11.8056 0.678706 12.3296 0.420043C12.8524 0.16524 13.3469 0.0243289 13.812 0.000198364C13.8256 0.12277 13.8313 0.24535 13.8313 0.366958V0.366969Z" fill="black"/>
</svg>
